<svg width="400" height="300" viewBox="0 0 400 300" fill="none" xmlns="http://www.w3.org/2000/svg">
  <defs>
    <linearGradient id="grad1" x1="0%" y1="0%" x2="100%" y2="100%">
      <stop offset="0%" style="stop-color:#3B82F6;stop-opacity:0.8" />
      <stop offset="100%" style="stop-color:#1E40AF;stop-opacity:0.9" />
    </linearGradient>
  </defs>
  <rect width="400" height="300" fill="url(#grad1)"/>
  
  <!-- Código/Desarrollo -->
  <g transform="translate(50, 50)">
    <!-- Monitor -->
    <rect x="50" y="40" width="200" height="120" rx="8" fill="rgba(255,255,255,0.1)" stroke="rgba(255,255,255,0.3)" stroke-width="2"/>
    <rect x="60" y="50" width="180" height="100" rx="4" fill="rgba(0,0,0,0.3)"/>
    
    <!-- Código en pantalla -->
    <rect x="70" y="60" width="60" height="4" fill="#10B981"/>
    <rect x="140" y="60" width="40" height="4" fill="#F59E0B"/>
    <rect x="70" y="70" width="80" height="4" fill="#EF4444"/>
    <rect x="70" y="80" width="100" height="4" fill="#8B5CF6"/>
    <rect x="70" y="90" width="50" height="4" fill="#10B981"/>
    <rect x="130" y="90" width="70" height="4" fill="#F59E0B"/>
    
    <!-- Base del monitor -->
    <rect x="120" y="160" width="60" height="8" fill="rgba(255,255,255,0.2)"/>
    <rect x="140" y="168" width="20" height="20" fill="rgba(255,255,255,0.1)"/>
  </g>
  
  <!-- Elementos decorativos -->
  <circle cx="320" cy="80" r="30" fill="rgba(255,255,255,0.1)"/>
  <circle cx="80" cy="220" r="20" fill="rgba(255,255,255,0.08)"/>
  <rect x="300" y="200" width="40" height="40" rx="8" fill="rgba(255,255,255,0.1)"/>
</svg>