<svg width="400" height="300" viewBox="0 0 400 300" fill="none" xmlns="http://www.w3.org/2000/svg">
  <defs>
    <linearGradient id="grad4" x1="0%" y1="0%" x2="100%" y2="100%">
      <stop offset="0%" style="stop-color:#F59E0B;stop-opacity:0.8" />
      <stop offset="100%" style="stop-color:#D97706;stop-opacity:0.9" />
    </linearGradient>
  </defs>
  <rect width="400" height="300" fill="url(#grad4)"/>
  
  <!-- Dispositivos con contenido social -->
  <g transform="translate(50, 40)">
    <!-- Teléfono móvil -->
    <rect x="40" y="20" width="80" height="140" rx="12" fill="rgba(255,255,255,0.15)" stroke="rgba(255,255,255,0.3)" stroke-width="2"/>
    <rect x="50" y="35" width="60" height="110" rx="6" fill="rgba(0,0,0,0.3)"/>
    
    <!-- Contenido Instagram -->
    <rect x="55" y="40" width="50" height="30" rx="3" fill="rgba(255,255,255,0.2)"/>
    <circle cx="65" cy="50" r="4" fill="#E91E63"/>
    <rect x="72" y="47" width="25" height="3" fill="rgba(255,255,255,0.3)"/>
    <rect x="72" y="52" width="20" height="2" fill="rgba(255,255,255,0.2)"/>
    
    <!-- Post 2 -->
    <rect x="55" y="75" width="50" height="30" rx="3" fill="rgba(255,255,255,0.2)"/>
    <circle cx="65" cy="85" r="4" fill="#1DA1F2"/>
    <rect x="72" y="82" width="25" height="3" fill="rgba(255,255,255,0.3)"/>
    <rect x="72" y="87" width="20" height="2" fill="rgba(255,255,255,0.2)"/>
    
    <!-- Post 3 -->
    <rect x="55" y="110" width="50" height="30" rx="3" fill="rgba(255,255,255,0.2)"/>
    <circle cx="65" cy="120" r="4" fill="#25D366"/>
    <rect x="72" y="117" width="25" height="3" fill="rgba(255,255,255,0.3)"/>
    <rect x="72" y="122" width="20" height="2" fill="rgba(255,255,255,0.2)"/>
    
    <!-- Tablet -->
    <rect x="160" y="40" width="120" height="90" rx="8" fill="rgba(255,255,255,0.15)" stroke="rgba(255,255,255,0.3)" stroke-width="2"/>
    <rect x="170" y="50" width="100" height="70" rx="4" fill="rgba(0,0,0,0.3)"/>
    
    <!-- Contenido Facebook -->
    <rect x="180" y="60" width="80" height="20" rx="2" fill="rgba(255,255,255,0.2)"/>
    <circle cx="190" cy="65" r="3" fill="#1877F2"/>
    <rect x="196" y="62" width="40" height="2" fill="rgba(255,255,255,0.3)"/>
    <rect x="196" y="66" width="30" height="2" fill="rgba(255,255,255,0.2)"/>
    
    <!-- Video thumbnail -->
    <rect x="180" y="85" width="80" height="25" rx="2" fill="rgba(255,255,255,0.2)"/>
    <polygon points="210,92 210,103 220,97.5" fill="rgba(255,255,255,0.6)"/>
  </g>
  
  <!-- Herramientas de diseño -->
  <g transform="translate(60, 200)">
    <!-- Paleta de colores -->
    <rect x="20" y="20" width="40" height="30" rx="4" fill="rgba(255,255,255,0.2)"/>
    <circle cx="25" cy="25" r="3" fill="#FF6B6B"/>
    <circle cx="35" cy="25" r="3" fill="#4ECDC4"/>
    <circle cx="25" cy="35" r="3" fill="#45B7D1"/>
    <circle cx="35" cy="35" r="3" fill="#96CEB4"/>
    <circle cx="30" cy="45" r="3" fill="#FFEAA7"/>
    
    <!-- Pinceles -->
    <rect x="80" y="25" width="3" height="20" fill="rgba(255,255,255,0.3)"/>
    <rect x="85" y="25" width="3" height="20" fill="rgba(255,255,255,0.3)"/>
    <rect x="90" y="25" width="3" height="20" fill="rgba(255,255,255,0.3)"/>
    <circle cx="81.5" cy="23" r="2" fill="rgba(255,255,255,0.4)"/>
    <circle cx="86.5" cy="23" r="2" fill="rgba(255,255,255,0.4)"/>
    <circle cx="91.5" cy="23" r="2" fill="rgba(255,255,255,0.4)"/>
  </g>
  
  <!-- Iconos de redes sociales -->
  <circle cx="320" cy="80" r="15" fill="#E91E63" opacity="0.7"/>
  <circle cx="350" cy="110" r="15" fill="#1DA1F2" opacity="0.7"/>
  <circle cx="320" cy="140" r="15" fill="#1877F2" opacity="0.7"/>
  
  <!-- Elementos decorativos -->
  <rect x="300" y="220" width="25" height="25" rx="4" fill="rgba(255,255,255,0.1)"/>
  <circle cx="80" cy="50" r="12" fill="rgba(255,255,255,0.08)"/>
</svg>