<svg width="400" height="300" viewBox="0 0 400 300" fill="none" xmlns="http://www.w3.org/2000/svg">
  <defs>
    <linearGradient id="grad2" x1="0%" y1="0%" x2="100%" y2="100%">
      <stop offset="0%" style="stop-color:#10B981;stop-opacity:0.8" />
      <stop offset="100%" style="stop-color:#059669;stop-opacity:0.9" />
    </linearGradient>
  </defs>
  <rect width="400" height="300" fill="url(#grad2)"/>
  
  <!-- Carrito de compras -->
  <g transform="translate(80, 60)">
    <!-- Carrito -->
    <path d="M20 40 L40 40 L50 80 L180 80 L190 40 L60 40" stroke="rgba(255,255,255,0.8)" stroke-width="3" fill="none"/>
    <rect x="50" y="80" width="130" height="60" rx="8" fill="rgba(255,255,255,0.1)" stroke="rgba(255,255,255,0.3)" stroke-width="2"/>
    
    <!-- Ruedas -->
    <circle cx="70" cy="160" r="8" fill="rgba(255,255,255,0.3)"/>
    <circle cx="160" cy="160" r="8" fill="rgba(255,255,255,0.3)"/>
    
    <!-- Productos en carrito -->
    <rect x="60" y="90" width="25" height="25" rx="4" fill="rgba(255,255,255,0.2)"/>
    <rect x="95" y="90" width="25" height="25" rx="4" fill="rgba(255,255,255,0.2)"/>
    <rect x="130" y="90" width="25" height="25" rx="4" fill="rgba(255,255,255,0.2)"/>
    
    <!-- Etiquetas de precio -->
    <rect x="60" y="120" width="30" height="8" rx="2" fill="#F59E0B"/>
    <rect x="95" y="120" width="30" height="8" rx="2" fill="#F59E0B"/>
    <rect x="130" y="120" width="30" height="8" rx="2" fill="#F59E0B"/>
  </g>
  
  <!-- Elementos decorativos -->
  <circle cx="320" cy="80" r="25" fill="rgba(255,255,255,0.1)"/>
  <circle cx="60" cy="220" r="15" fill="rgba(255,255,255,0.08)"/>
  <rect x="300" y="200" width="35" height="35" rx="6" fill="rgba(255,255,255,0.1)"/>
  
  <!-- Iconos de dinero -->
  <text x="320" y="90" font-family="Arial" font-size="20" fill="rgba(255,255,255,0.6)">€</text>
  <text x="300" y="220" font-family="Arial" font-size="16" fill="rgba(255,255,255,0.4)">$</text>
</svg>